<svg xmlns="http://www.w3.org/2000/svg" viewBox="0 0 450 120" fill="none">
  <defs>
    <linearGradient id="arGrad" x1="0%" y1="0%" x2="100%" y2="100%">
      <stop offset="0%" stop-color="#2563EB" />
      <stop offset="100%" stop-color="#4F46E5" />
    </linearGradient>
    <linearGradient id="textGrad" x1="0%" y1="0%" x2="100%" y2="0%">
      <stop offset="0%" stop-color="#2563EB" />
      <stop offset="100%" stop-color="#4F46E5" />
    </linearGradient>
  </defs>

  <!-- AR Symbol Group -->
  <g transform="translate(10, 5)">
    <!-- 5 Gold Stars above R -->
    <g fill="#F59E0B" transform="translate(54, 2)">
      <polygon points="5,0 6.5,3 9.8,3.5 7.4,5.8 8,9.1 5,7.5 2,9.1 2.6,5.8 0.2,3.5 3.5,3" transform="translate(0,0)"/>
      <polygon points="5,0 6.5,3 9.8,3.5 7.4,5.8 8,9.1 5,7.5 2,9.1 2.6,5.8 0.2,3.5 3.5,3" transform="translate(9,0)"/>
      <polygon points="5,0 6.5,3 9.8,3.5 7.4,5.8 8,9.1 5,7.5 2,9.1 2.6,5.8 0.2,3.5 3.5,3" transform="translate(18,0)"/>
      <polygon points="5,0 6.5,3 9.8,3.5 7.4,5.8 8,9.1 5,7.5 2,9.1 2.6,5.8 0.2,3.5 3.5,3" transform="translate(27,0)"/>
      <polygon points="5,0 6.5,3 9.8,3.5 7.4,5.8 8,9.1 5,7.5 2,9.1 2.6,5.8 0.2,3.5 3.5,3" transform="translate(36,0)"/>
    </g>

    <!-- 'A' Shape -->
    <path d="M 45 16 L 5 99 C 3 103 6 108 11 108 L 38 108 C 42 108 45 105 47 101 L 54 85 L 28 85 C 25 85 23 82 24 79 L 36 54 C 37 51 40 50 43 50 L 68 50 L 56 25 C 54 20 48 16 45 16 Z" fill="url(#arGrad)"/>

    <!-- Speech bubble 3 dots inside A bar -->
    <circle cx="34" cy="68" r="2.5" fill="#FFFFFF"/>
    <circle cx="42" cy="68" r="2.5" fill="#FFFFFF"/>
    <circle cx="50" cy="68" r="2.5" fill="#FFFFFF"/>

    <!-- 'R' Shape -->
    <path d="M 52 16 C 55 16 60 16 65 16 C 85 16 100 28 100 49 C 100 66 88 78 72 81 L 95 105 C 98 108 96 112 91 112 L 74 112 C 71 112 68 110 66 108 L 48 87 C 46 85 48 81 51 81 L 64 81 C 74 81 82 74 82 62 C 82 50 74 43 64 43 L 45 43 C 42 43 40 41 41 38 L 49 21 C 50 18 51 16 52 16 Z" fill="#1E293B"/>
  </g>

  <!-- Autorevio Text -->
  <text x="125" y="80" font-family="System-UI, -apple-system, BlinkMacSystemFont, 'Inter', sans-serif" font-weight="800" font-size="52" letter-spacing="-1">
    <tspan fill="url(#textGrad)">auto</tspan>
    <tspan fill="#1E293B">revio</tspan>
  </text>
</svg>
